<svg width="600" height="300" viewBox="0 0 600 300" fill="none" xmlns="http://www.w3.org/2000/svg">
<rect width="600" height="300" fill="#1E1E1E"/>
<path d="M426.917 146.917V134.417H431.083V146.917H443.583V151.083H431.083V163.583H426.917V151.083H414.417V146.917H426.917Z" fill="white"/>
<rect x="389" y="109" width="81" height="81" rx="40.5" stroke="white" stroke-width="2"/>
<path d="M166.917 146.917V134.417H171.083V146.917H183.583V151.083H171.083V163.583H166.917V151.083H154.417V146.917H166.917Z" fill="white"/>
<rect x="129" y="109" width="81" height="81" rx="40.5" stroke="white" stroke-width="2"/>
<path d="M169 85L184 93.6603L184 76.3397L169 85ZM429 85L414 76.3398L414 93.6603L429 85ZM182.5 86.5L415.5 86.5L415.5 83.5L182.5 83.5L182.5 86.5Z" fill="white"/>
<line x1="430.5" y1="71" x2="430.5" y2="101" stroke="white" stroke-width="3"/>
<line x1="170.5" y1="71" x2="170.5" y2="101" stroke="white" stroke-width="3"/>
<path d="M301.561 45.7291C299.886 46.0533 299.021 47.2421 299.021 48.4309C299.021 49.7277 300.048 50.16 300.804 50.16C302.317 50.16 303.56 48.8632 303.56 47.2421C303.56 45.513 301.885 44 299.183 44C297.022 44 294.536 44.9726 292.267 48.2688C291.888 45.4049 289.727 44 287.566 44C285.458 44 284.378 45.6211 283.729 46.8098C282.811 48.7551 282 51.9972 282 52.2674C282 52.4835 282.216 52.7537 282.594 52.7537C283.027 52.7537 283.081 52.6997 283.405 51.4569C284.215 48.2148 285.242 45.0807 287.404 45.0807C288.7 45.0807 289.079 45.9993 289.079 47.5663C289.079 48.7551 288.538 50.8625 288.16 52.5376L286.647 58.3734C286.431 59.4001 285.837 61.8317 285.566 62.8043C285.188 64.2092 284.594 66.7489 284.594 67.0191C284.594 67.7756 285.188 68.3699 285.999 68.3699C286.593 68.3699 287.62 67.9917 287.944 66.911C288.106 66.4787 290.105 58.3194 290.43 57.0766C290.7 55.8878 291.024 54.753 291.294 53.5643C291.51 52.8078 291.726 51.9432 291.888 51.2407C292.051 50.7544 293.51 48.1067 294.86 46.9179C295.509 46.3235 296.914 45.0807 299.129 45.0807C299.994 45.0807 300.858 45.2428 301.561 45.7291Z" fill="white"/>
<path d="M322 64.4422C322 60.5877 321.604 58.2461 320.415 55.9406C318.83 52.7705 315.912 51.978 313.931 51.978C309.392 51.978 307.735 55.3642 307.23 56.3729C305.933 59.0026 305.861 62.569 305.861 64.4422C305.861 66.8197 305.969 70.4581 307.699 73.34C309.356 76.0058 312.021 76.6902 313.931 76.6902C315.66 76.6902 318.758 76.1498 320.559 72.5835C321.892 69.9898 322 66.7837 322 64.4422ZM313.931 75.6815C312.706 75.6815 310.22 75.1052 309.464 71.3227C309.067 69.2693 309.067 65.8831 309.067 64.0099C309.067 61.5243 309.067 59.0026 309.464 57.0213C310.22 53.3469 313.03 52.9867 313.931 52.9867C315.155 52.9867 317.641 53.5991 318.362 56.8772C318.794 58.8585 318.794 61.5603 318.794 64.0099C318.794 66.1353 318.794 69.3774 318.362 71.3947C317.605 75.1772 315.119 75.6815 313.931 75.6815Z" fill="white"/>
<path d="M172.199 198.577C172.199 198.289 171.968 198.058 171.68 198.058C171.218 198.058 168.967 200.135 167.871 202.155C166.832 199.558 165.043 198 162.562 198C156.04 198 149 206.425 149 214.966C149 220.68 152.347 224.027 156.271 224.027C159.33 224.027 161.869 221.718 163.081 220.391L163.139 220.449L160.946 229.105L160.426 231.182C159.907 232.914 159.041 232.914 156.329 232.971C155.694 232.971 155.117 232.971 155.117 234.068C155.117 234.472 155.463 234.645 155.867 234.645C156.675 234.645 157.714 234.53 158.522 234.53H164.408C165.274 234.53 166.255 234.645 167.121 234.645C167.467 234.645 168.159 234.645 168.159 233.549C168.159 232.971 167.698 232.971 166.832 232.971C164.12 232.971 163.947 232.567 163.947 232.106C163.947 231.817 164.004 231.76 164.177 231.009L172.199 198.577ZM164.062 216.582C163.773 217.563 163.773 217.679 162.965 218.775C161.696 220.391 159.157 222.872 156.444 222.872C154.078 222.872 152.751 220.737 152.751 217.332C152.751 214.158 154.54 207.695 155.636 205.271C157.599 201.232 160.311 199.154 162.562 199.154C166.37 199.154 167.121 203.886 167.121 204.348C167.121 204.406 166.947 205.156 166.89 205.271L164.062 216.582Z" fill="white"/>
<path d="M183.883 207.598C183.883 206.559 183.806 206.521 182.768 206.521C181.19 208.059 179.151 208.983 175.496 208.983V210.252C176.535 210.252 178.612 210.252 180.844 209.214V228.95C180.844 230.373 180.728 230.835 177.074 230.835H175.727V232.105C177.304 231.989 180.613 231.989 182.344 231.989C184.076 231.989 187.423 231.989 189 232.105V230.835H187.654C183.999 230.835 183.883 230.373 183.883 228.95V207.598Z" fill="white"/>
<path d="M431.548 198.561C431.548 198.28 431.324 198.056 431.043 198.056C430.595 198.056 428.407 200.075 427.341 202.038C426.332 199.514 424.593 198 422.181 198C415.843 198 409 206.189 409 214.49C409 220.043 412.253 223.297 416.067 223.297C419.04 223.297 421.508 221.053 422.686 219.763L422.742 219.819L420.611 228.233L420.106 230.252C419.601 231.934 418.76 231.934 416.123 231.991C415.506 231.991 414.946 231.991 414.946 233.056C414.946 233.449 415.282 233.617 415.675 233.617C416.46 233.617 417.47 233.505 418.255 233.505H423.976C424.817 233.505 425.771 233.617 426.612 233.617C426.949 233.617 427.622 233.617 427.622 232.551C427.622 231.991 427.173 231.991 426.332 231.991C423.696 231.991 423.527 231.598 423.527 231.149C423.527 230.869 423.583 230.813 423.752 230.084L431.548 198.561ZM423.639 216.061C423.359 217.015 423.359 217.127 422.574 218.192C421.34 219.763 418.872 222.175 416.236 222.175C413.936 222.175 412.646 220.099 412.646 216.79C412.646 213.705 414.385 207.423 415.45 205.067C417.357 201.141 419.994 199.122 422.181 199.122C425.883 199.122 426.612 203.721 426.612 204.17C426.612 204.226 426.444 204.955 426.388 205.067L423.639 216.061Z" fill="white"/>
<path d="M441.708 223.52C442.307 222.959 443.877 221.725 444.476 221.202C446.794 219.07 449 217.014 449 213.611C449 209.161 445.261 206.282 440.587 206.282C436.099 206.282 433.145 209.685 433.145 213.013C433.145 214.845 434.604 215.107 435.127 215.107C435.912 215.107 437.072 214.546 437.072 213.125C437.072 211.18 435.202 211.18 434.753 211.18C435.838 208.451 438.343 207.516 440.175 207.516C443.653 207.516 445.448 210.47 445.448 213.611C445.448 217.5 442.718 220.342 438.306 224.866L433.594 229.727C433.145 230.139 433.145 230.213 433.145 231.148H447.916L449 224.455H447.841C447.729 225.203 447.43 227.072 446.981 227.783C446.757 228.082 443.915 228.082 443.316 228.082H436.66L441.708 223.52Z" fill="white"/>
</svg>
